HIERARCHY
ROOT Hips
{
  OFFSET -350.944 86.4296 1532.92
  CHANNELS 6 Xposition Yposition Zposition Zrotation Xrotation Yrotation
  JOINT Spine
  {
    OFFSET -3.49054e-05 8 7.08629e-05
    CHANNELS 6 Xposition Yposition Zposition Zrotation Xrotation Yrotation
    JOINT Spine1
    {
      OFFSET -0.00113886 7.99999 -0.000900708
      CHANNELS 6 Xposition Yposition Zposition Zrotation Xrotation Yrotation
      JOINT Spine2
      {
        OFFSET 0.00028528 7.99999 -1.39751e-05
        CHANNELS 6 Xposition Yposition Zposition Zrotation Xrotation Yrotation
        JOINT Spine3
        {
          OFFSET 0 8 0
          CHANNELS 6 Xposition Yposition Zposition Zrotation Xrotation Yrotation
          JOINT Neck
          {
            OFFSET -3.78642e-05 17 8.95254e-05
            CHANNELS 6 Xposition Yposition Zposition Zrotation Xrotation Yrotation
            JOINT Head
            {
              OFFSET 0.000217081 10.8 -7.67038e-05
              CHANNELS 6 Xposition Yposition Zposition Zrotation Xrotation Yrotation
              End Site
              {
                OFFSET 0 20.25 0
              }
            }
          }
          JOINT LeftShoulder
          {
            OFFSET 4.99997 17 0.000189593
            CHANNELS 6 Xposition Yposition Zposition Zrotation Xrotation Yrotation
            JOINT LeftShoulder2
            {
              OFFSET 6.45 0 0
              CHANNELS 6 Xposition Yposition Zposition Zrotation Xrotation Yrotation
              JOINT LeftArm
              {
                OFFSET 6.44997 -3.15049e-05 -0.000108017
                CHANNELS 6 Xposition Yposition Zposition Zrotation Xrotation Yrotation
                JOINT LeftForeArm
                {
                  OFFSET 0.00655277 -32.4124 -2.00945
                  CHANNELS 6 Xposition Yposition Zposition Zrotation Xrotation Yrotation
                  JOINT LeftHand
                  {
                    OFFSET 0.000186497 -25.6504 1.99932
                    CHANNELS 6 Xposition Yposition Zposition Zrotation Xrotation Yrotation
                    JOINT LeftHandThumb1
                    {
                      OFFSET -0.496396 -1.49705 2.6451
                      CHANNELS 6 Xposition Yposition Zposition Zrotation Xrotation Yrotation
                      JOINT LeftHandThumb2
                      {
                        OFFSET 0.000933155 -3.79831 3.69406
                        CHANNELS 6 Xposition Yposition Zposition Zrotation Xrotation Yrotation
                        JOINT LeftHandThumb3
                        {
                          OFFSET 0.000913582 -3.00151 2.70108
                          CHANNELS 6 Xposition Yposition Zposition Zrotation Xrotation Yrotation
                          End Site
                          {
                            OFFSET -9.95606e-05 -2.30045 1.80005
                          }
                        }
                      }
                    }
                    JOINT LeftHandIndex
                    {
                      OFFSET 0.000221618 -1.89989 1.59998
                      CHANNELS 6 Xposition Yposition Zposition Zrotation Xrotation Yrotation
                      JOINT LeftHandIndex1
                      {
                        OFFSET -0.0107515 -8.31305 1.92276
                        CHANNELS 6 Xposition Yposition Zposition Zrotation Xrotation Yrotation
                        JOINT LeftHandIndex2
                        {
                          OFFSET -1.51889e-05 -4.49995 -0.000390548
                          CHANNELS 6 Xposition Yposition Zposition Zrotation Xrotation Yrotation
                          JOINT LeftHandIndex3
                          {
                            OFFSET -0.000118353 -3.39932 -0.00192124
                            CHANNELS 6 Xposition Yposition Zposition Zrotation Xrotation Yrotation
                            End Site
                            {
                              OFFSET -0.000676592 -2.60012 0.00179461
                            }
                          }
                        }
                      }
                    }
                    JOINT LeftHandMiddle
                    {
                      OFFSET -0.244884 -2.19458 0.390629
                      CHANNELS 6 Xposition Yposition Zposition Zrotation Xrotation Yrotation
                      JOINT LeftHandMiddle1
                      {
                        OFFSET -0.000418337 -8.2995 0.998938
                        CHANNELS 6 Xposition Yposition Zposition Zrotation Xrotation Yrotation
                        JOINT LeftHandMiddle2
                        {
                          OFFSET 0.00227895 -4.64752 -0.00259763
                          CHANNELS 6 Xposition Yposition Zposition Zrotation Xrotation Yrotation
                          JOINT LeftHandMiddle3
                          {
                            OFFSET -0.0015662 -3.29879 -0.000559424
                            CHANNELS 6 Xposition Yposition Zposition Zrotation Xrotation Yrotation
                            End Site
                            {
                              OFFSET -0.000162438 -2.70024 5.34274e-05
                            }
                          }
                        }
                      }
                    }
                    JOINT LeftHandRing
                    {
                      OFFSET -0.500566 -2.15052 -0.79961
                      CHANNELS 6 Xposition Yposition Zposition Zrotation Xrotation Yrotation
                      JOINT LeftHandRing1
                      {
                        OFFSET 0.0010896 -7.74988 -0.199677
                        CHANNELS 6 Xposition Yposition Zposition Zrotation Xrotation Yrotation
                        JOINT LeftHandRing2
                        {
                          OFFSET -0.00335399 -3.80233 0.00521164
                          CHANNELS 6 Xposition Yposition Zposition Zrotation Xrotation Yrotation
                          JOINT LeftHandRing3
                          {
                            OFFSET 0.000100343 -3.40011 -0.000144197
                            CHANNELS 6 Xposition Yposition Zposition Zrotation Xrotation Yrotation
                            End Site
                            {
                              OFFSET 0.00461671 -2.59986 -0.00318908
                            }
                          }
                        }
                      }
                    }
                    JOINT LeftHandPinky
                    {
                      OFFSET -0.755093 -1.75284 -1.84463
                      CHANNELS 6 Xposition Yposition Zposition Zrotation Xrotation Yrotation
                      JOINT LeftHandPinky1
                      {
                        OFFSET 0.00322953 -7.14998 -0.998499
                        CHANNELS 6 Xposition Yposition Zposition Zrotation Xrotation Yrotation
                        JOINT LeftHandPinky2
                        {
                          OFFSET -5.13871e-05 -3.00006 0.000158468
                          CHANNELS 6 Xposition Yposition Zposition Zrotation Xrotation Yrotation
                          JOINT LeftHandPinky3
                          {
                            OFFSET -0.000836976 -2.35033 0.000815698
                            CHANNELS 6 Xposition Yposition Zposition Zrotation Xrotation Yrotation
                            End Site
                            {
                              OFFSET 0.000260429 -2.1001 0.000112587
                            }
                          }
                        }
                      }
                    }
                  }
                }
              }
            }
          }
          JOINT RightShoulder
          {
            OFFSET -5.00002 17 0
            CHANNELS 6 Xposition Yposition Zposition Zrotation Xrotation Yrotation
            JOINT RightShoulder2
            {
              OFFSET -6.45 0 0
              CHANNELS 6 Xposition Yposition Zposition Zrotation Xrotation Yrotation
              JOINT RightArm
              {
                OFFSET -6.44997 0.000896597 -0.000910356
                CHANNELS 6 Xposition Yposition Zposition Zrotation Xrotation Yrotation
                JOINT RightForeArm
                {
                  OFFSET 0.000359834 -32.3937 -1.9957
                  CHANNELS 6 Xposition Yposition Zposition Zrotation Xrotation Yrotation
                  JOINT RightHand
                  {
                    OFFSET -0.001246 -25.6527 1.99437
                    CHANNELS 6 Xposition Yposition Zposition Zrotation Xrotation Yrotation
                    JOINT RightHandThumb1
                    {
                      OFFSET 0.500677 -1.50016 2.65018
                      CHANNELS 6 Xposition Yposition Zposition Zrotation Xrotation Yrotation
                      JOINT RightHandThumb2
                      {
                        OFFSET 0.000759381 -3.79888 3.70267
                        CHANNELS 6 Xposition Yposition Zposition Zrotation Xrotation Yrotation
                        JOINT RightHandThumb3
                        {
                          OFFSET 0.000582516 -3.00008 2.69912
                          CHANNELS 6 Xposition Yposition Zposition Zrotation Xrotation Yrotation
                          End Site
                          {
                            OFFSET -0.000459201 -2.29954 1.80015
                          }
                        }
                      }
                    }
                    JOINT RightHandIndex
                    {
                      OFFSET 0.00123282 -1.90029 1.60092
                      CHANNELS 6 Xposition Yposition Zposition Zrotation Xrotation Yrotation
                      JOINT RightHandIndex1
                      {
                        OFFSET 0.00427961 -8.30121 1.90179
                        CHANNELS 6 Xposition Yposition Zposition Zrotation Xrotation Yrotation
                        JOINT RightHandIndex2
                        {
                          OFFSET 0.00360244 -4.49916 -0.00055256
                          CHANNELS 6 Xposition Yposition Zposition Zrotation Xrotation Yrotation
                          JOINT RightHandIndex3
                          {
                            OFFSET -0.00104811 -3.40443 0.00396049
                            CHANNELS 6 Xposition Yposition Zposition Zrotation Xrotation Yrotation
                            End Site
                            {
                              OFFSET 0.000626625 -2.60278 -0.00282818
                            }
                          }
                        }
                      }
                    }
                    JOINT RightHandMiddle
                    {
                      OFFSET 0.246551 -2.19944 0.395542
                      CHANNELS 6 Xposition Yposition Zposition Zrotation Xrotation Yrotation
                      JOINT RightHandMiddle1
                      {
                        OFFSET -0.000811159 -8.29966 0.999635
                        CHANNELS 6 Xposition Yposition Zposition Zrotation Xrotation Yrotation
                        JOINT RightHandMiddle2
                        {
                          OFFSET -0.00278418 -4.64976 -0.00133566
                          CHANNELS 6 Xposition Yposition Zposition Zrotation Xrotation Yrotation
                          JOINT RightHandMiddle3
                          {
                            OFFSET -0.00179517 -3.30359 0.00209203
                            CHANNELS 6 Xposition Yposition Zposition Zrotation Xrotation Yrotation
                            End Site
                            {
                              OFFSET -0.0136883 -2.69159 0.00920651
                            }
                          }
                        }
                      }
                    }
                    JOINT RightHandRing
                    {
                      OFFSET 0.49966 -2.14987 -0.799627
                      CHANNELS 6 Xposition Yposition Zposition Zrotation Xrotation Yrotation
                      JOINT RightHandRing1
                      {
                        OFFSET -0.00127484 -7.74954 -0.201054
                        CHANNELS 6 Xposition Yposition Zposition Zrotation Xrotation Yrotation
                        JOINT RightHandRing2
                        {
                          OFFSET 0.000340735 -3.80005 -0.000162978
                          CHANNELS 6 Xposition Yposition Zposition Zrotation Xrotation Yrotation
                          JOINT RightHandRing3
                          {
                            OFFSET -0.000645977 -3.40013 0.000750257
                            CHANNELS 6 Xposition Yposition Zposition Zrotation Xrotation Yrotation
                            End Site
                            {
                              OFFSET -0.00243683 -2.59952 0.00211086
                            }
                          }
                        }
                      }
                    }
                    JOINT RightHandPinky
                    {
                      OFFSET 0.753314 -1.75187 -1.85373
                      CHANNELS 6 Xposition Yposition Zposition Zrotation Xrotation Yrotation
                      JOINT RightHandPinky1
                      {
                        OFFSET -0.000145438 -7.15 -0.999672
                        CHANNELS 6 Xposition Yposition Zposition Zrotation Xrotation Yrotation
                        JOINT RightHandPinky2
                        {
                          OFFSET -0.0094426 -3.00079 0.00248366
                          CHANNELS 6 Xposition Yposition Zposition Zrotation Xrotation Yrotation
                          JOINT RightHandPinky3
                          {
                            OFFSET -0.00078075 -2.34837 0.000486628
                            CHANNELS 6 Xposition Yposition Zposition Zrotation Xrotation Yrotation
                            End Site
                            {
                              OFFSET 1.58593e-05 -2.09997 -6.89894e-05
                            }
                          }
                        }
                      }
                    }
                  }
                }
              }
            }
          }
        }
      }
    }
  }
  JOINT LeftUpLeg
  {
    OFFSET 8.00001 0 8.09274e-05
    CHANNELS 6 Xposition Yposition Zposition Zrotation Xrotation Yrotation
    JOINT LeftLeg
    {
      OFFSET -0.00190671 -44.9984 -1.00215
      CHANNELS 6 Xposition Yposition Zposition Zrotation Xrotation Yrotation
      JOINT LeftFoot
      {
        OFFSET -0.00122103 -40.9997 -1.99997
        CHANNELS 6 Xposition Yposition Zposition Zrotation Xrotation Yrotation
        JOINT LeftToeBase
        {
          OFFSET -0.00192919 -7.49994 12.5026
          CHANNELS 6 Xposition Yposition Zposition Zrotation Xrotation Yrotation
          JOINT LeftFootToe
          {
            OFFSET 0 0 4
            CHANNELS 6 Xposition Yposition Zposition Zrotation Xrotation Yrotation
            End Site
            {
              OFFSET 0 0 0
            }
          }
        }
      }
    }
  }
  JOINT RightUpLeg
  {
    OFFSET -8.00001 0 -8.09274e-05
    CHANNELS 6 Xposition Yposition Zposition Zrotation Xrotation Yrotation
    JOINT RightLeg
    {
      OFFSET -0.00025856 -45.0001 -0.999666
      CHANNELS 6 Xposition Yposition Zposition Zrotation Xrotation Yrotation
      JOINT RightFoot
      {
        OFFSET 0.00935712 -41.0233 -1.99693
        CHANNELS 6 Xposition Yposition Zposition Zrotation Xrotation Yrotation
        JOINT RightToeBase
        {
          OFFSET -0.000583239 -7.49988 12.5009
          CHANNELS 6 Xposition Yposition Zposition Zrotation Xrotation Yrotation
          JOINT RightFootToe
          {
            OFFSET 0 0 4
            CHANNELS 6 Xposition Yposition Zposition Zrotation Xrotation Yrotation
            End Site
            {
              OFFSET 0 0 0
            }
          }
        }
      }
    }
  }
}
MOTION
Frames:	3
Frame Time:	0.0111111
-368.869 77.5111 1557.24 0.911513 5.57846 156.657 0 8 0 9.18138 9.09541 -7.53518 0 8 0 0.945614 7.74423 3.85959 5.68434e-14 8 0 0.537757 3.86981 1.94429 0 8 0 0.536419 3.85854 1.93859 -5.68434e-14 17 0 3.92908 1.54382 -2.44406 1.13687e-13 10.8 -2.27374e-13 9.25471 3.30364 -5.86549 5 17 2.27374e-13 -1.16257 1.37986 2.84397 6.45 -5.68434e-14 0 -0.7187 -0.0286788 0.11485 6.45 -5.68434e-14 -2.27374e-13 34.3387 -26.8555 15.1609 5.68434e-14 -32.4 -2 -25.2199 -39.2297 -29.2843 -1.13687e-13 -25.65 2 35.4604 -23.7527 17.0642 -0.5 -1.5 2.65 -21.5419 -38.79 36.6605 -1.13687e-13 -3.8 3.7 4.00746 7.88159 2.64761 0 -3 2.7 0.04865 31.6359 0.0397217 2.27374e-13 -1.9 1.6 3.34648e-06 6.37379e-06 -2.40681e-06 0 -8.3 1.9 -53.9536 21.3527 12.4612 1.13687e-13 -4.5 0 -54.4397 0.110808 -0.285812 0 -3.4 0 -38.1795 0.204036 -0.116266 -0.25 -2.2 0.4 3.34648e-06 6.37379e-06 -2.40681e-06 1.7053e-13 -8.3 1 -65.3813 19.9297 16.6956 0 -4.65 0 -85.61 0.0463651 -0.0581205 0 -3.3 2.27374e-13 -90.0002 4.75111e-05 -0.000126284 -0.5 -2.15 -0.8 3.34648e-06 6.37379e-06 -2.40681e-06 -5.68434e-14 -7.75 -0.2 -70.7683 18.1313 19.1187 0 -3.8 0 -54.6025 -0.0188066 -0.104138 0 -3.4 -2.27374e-13 -84.505 0.0329604 -0.00601827 -0.75 -1.75 -1.85 3.34648e-06 6.37379e-06 -2.40681e-06 -2.27374e-13 -7.15 -1 -80.3031 10.5245 19.3487 0 -3 0 -28.7296 0.000428471 -0.00585983 0 -2.35 0 -21.2732 1.70273e-05 -0.00259398 -5 17 0 5.70461 2.80863 1.89785 -6.45 -5.68434e-14 -2.27374e-13 -1.66919 -1.29817 -2.52639 -6.45 -5.68434e-14 0 -54.2301 -28.9532 3.43409 -5.68434e-14 -32.4 -2 -149.134 -69.0692 -146.436 -2.84217e-14 -25.65 2 -5.94646 -12.7934 -7.57744 0.5 -1.5 2.65 -130.064 18.5088 96.6965 0 -3.8 3.7 -2.56762 7.97548 -1.95939 0 -3 2.7 0.796179 52.3301 -0.897294 8.52651e-14 -1.9 1.6 -3.66751e-06 1.1005e-05 -6.4454e-06 1.13687e-13 -8.3 1.9 22.6418 10.78 -2.38577 0 -4.5 0 32.8992 7.9513 0.123358 3.41061e-13 -3.4 0 24.8363 -0.00805413 0.00825616 0.25 -2.2 0.4 -3.66751e-06 1.1005e-05 -6.4454e-06 -1.13687e-13 -8.3 1 7.56614 4.52797 -0.356068 2.84217e-14 -4.65 1.13687e-13 42.4699 24.8218 2.39157 0 -3.3 -1.13687e-13 36.7913 -0.0171266 0.00915674 0.5 -2.15 -0.8 -3.66751e-06 1.1005e-05 -6.4454e-06 8.52651e-14 -7.75 -0.2 10.3584 -6.37697 0.390935 2.13163e-13 -3.8 0 20.3575 21.3766 3.74417 1.13687e-13 -3.4 0 28.1166 -0.00413549 -0.0148546 0.75 -1.75 -1.85 -3.66751e-06 1.1005e-05 -6.4454e-06 8.52651e-14 -7.15 -1 3.50378 10.9201 -0.582254 5.68434e-14 -3 0 10.7933 6.77821 0.253068 0 -2.35 1.13687e-13 12.4307 -0.00578171 0.0055867 8 -2.84217e-14 2.27374e-13 36.0681 -33.2499 35.2496 0 -45 -1 -46.4768 33.5394 21.1305 -5.68434e-14 -41 -2 25.9286 9.77796 -14.9736 -2.27374e-13 -7.5 12.5 -0.000251577 1.09897e-05 0.237964 5.68434e-14 -7.10543e-15 4 9.78886 -8.40016 83.1258 -8 0 0 -17.6532 -44.8092 -24.7256 0 -45 -1 -58.5654 21.7946 53.4482 2.84217e-14 -41 -2 77.7272 0.204177 -12.2734 0 -7.5 12.5 -2.62646e-05 -2.62575e-05 5.55341e-06 1.13687e-13 5.68434e-14 4 -43.6662 -22.9258 117.918 
-368.849 77.5136 1557.24 0.903424 5.57946 156.658 5.68434e-14 8 0 9.19142 9.09202 -7.55479 -1.7053e-13 8 -2.27374e-13 0.938128 7.73699 3.84627 0 8 2.27374e-13 0.533776 3.86628 1.93749 -1.13687e-13 8 2.27374e-13 0.531687 3.85518 1.93132 1.7053e-13 17 -2.27374e-13 3.89888 1.5647 -2.42821 2.27374e-13 10.8 0 9.18503 3.35607 -5.82969 5 17 0 -1.16043 1.3488 2.77786 6.45 -5.68434e-14 0 -0.723755 -0.0354756 0.115415 6.45 -1.13687e-13 -2.27374e-13 34.097 -26.2674 14.932 0 -32.4 -2 -25.2483 -39.3141 -29.6799 -2.27374e-13 -25.65 2 36.8705 -24.2526 18.8 -0.5 -1.5 2.65 -23.2694 -38.5964 36.1392 -2.27374e-13 -3.8 3.7 3.79304 7.35178 2.53409 1.13687e-13 -3 2.7 0.0402816 28.7986 0.0645453 2.27374e-13 -1.9 1.6 3.34648e-06 6.37379e-06 -2.40681e-06 0 -8.3 1.9 -50.1748 21.4357 11.4677 2.27374e-13 -4.5 -1.13687e-13 -57.6675 0.125217 -0.23672 2.27374e-13 -3.4 0 -40.7117 0.202258 -0.0758415 -0.25 -2.2 0.4 3.34648e-06 6.37379e-06 -2.40681e-06 2.84217e-13 -8.3 1 -61.5578 20.8856 15.9448 0 -4.65 1.13687e-13 -86.6241 0.0426719 -0.0447456 -1.13687e-13 -3.3 2.27374e-13 -90.0002 4.62875e-05 -0.000125063 -0.5 -2.15 -0.8 3.34648e-06 6.37379e-06 -2.40681e-06 -1.13687e-13 -7.75 -0.2 -67.3055 19.6567 18.7029 0 -3.8 -1.13687e-13 -56.0236 -0.0147476 -0.0763929 0 -3.4 -2.27374e-13 -84.9679 0.0240786 -0.00447535 -0.75 -1.75 -1.85 3.34648e-06 6.37379e-06 -2.40681e-06 -2.27374e-13 -7.15 -1 -77.8094 12.3097 19.523 0 -3 0 -28.4971 0.01071 -0.00345702 0 -2.35 1.13687e-13 -21.1333 0.0063582 0.00075837 -5 17 -2.27374e-13 5.81932 2.81223 1.94346 -6.45 -5.68434e-14 0 -1.67099 -1.30658 -2.52642 -6.45 -5.68434e-14 0 -54.5674 -28.7054 3.00919 -1.13687e-13 -32.4 -2 -149.834 -69.0746 -147.223 -2.84217e-14 -25.65 2 -6.04452 -12.5907 -7.94325 0.5 -1.5 2.65 -129.806 18.4584 96.449 0 -3.8 3.7 -2.5995 8.09256 -1.97612 0 -3 2.7 0.796163 52.3303 -0.897234 5.68434e-14 -1.9 1.6 -3.66751e-06 1.1005e-05 -6.4454e-06 -2.84217e-14 -8.3 1.9 22.6347 10.8973 -2.41017 5.68434e-14 -4.5 -1.13687e-13 32.8406 7.93132 0.120927 5.68434e-13 -3.4 0 24.7985 -0.00594056 0.00575822 0.25 -2.2 0.4 -3.66751e-06 1.1005e-05 -6.4454e-06 -2.84217e-14 -8.3 1 7.56342 4.5637 -0.356547 2.84217e-14 -4.65 0 42.4693 24.8203 2.39048 0 -3.3 0 36.7891 -0.0144481 0.00726098 0.5 -2.15 -0.8 -3.66751e-06 1.1005e-05 -6.4454e-06 2.84217e-14 -7.75 -0.2 10.3807 -6.32732 0.388236 2.55795e-13 -3.8 0 20.4062 21.4628 3.77977 1.13687e-13 -3.4 1.13687e-13 28.2027 -0.00349495 -0.0130072 0.75 -1.75 -1.85 -3.66751e-06 1.1005e-05 -6.4454e-06 5.68434e-14 -7.15 -1 3.59033 10.9081 -0.590583 -2.84217e-14 -3 -1.13687e-13 10.9 6.84779 0.256891 0 -2.35 0 12.5356 -0.00467799 0.00454073 8 0 0 36.0759 -33.2331 35.2671 1.13687e-13 -45 -1 -46.4754 33.538 21.1177 2.84217e-14 -41 -2 25.922 9.77807 -15.0612 -2.27374e-13 -7.5 12.5 -0.000251577 1.09897e-05 0.237999 0 0 4 9.78382 -8.39865 83.1005 -8 0 0 -17.6644 -44.8142 -24.7361 0 -45 -1 -58.5593 21.7935 53.4387 -2.84217e-14 -41 -2 77.7104 0.207954 -12.2494 0 -7.5 12.5 -2.62646e-05 -2.62575e-05 5.55341e-06 -1.13687e-13 0 4 -43.6639 -22.9093 117.929 
-368.825 77.515 1557.23 0.894615 5.58428 156.658 0 8 2.27374e-13 9.20588 9.0881 -7.57454 -1.13687e-13 8 -2.27374e-13 0.932538 7.72982 3.83398 0 8 2.27374e-13 0.530838 3.86274 1.93124 0 8 2.27374e-13 0.528484 3.85154 1.92521 -5.68434e-14 17 0 3.86601 1.58514 -2.40952 2.84217e-13 10.8 0 9.10899 3.408 -5.78708 5 17 2.27374e-13 -1.15037 1.30916 2.73026 6.45 0 0 -0.730596 -0.0386497 0.114548 6.45 -5.68434e-14 0 33.8492 -25.7126 14.6823 -5.68434e-14 -32.4 -2 -25.2622 -39.3841 -30.0793 -1.13687e-13 -25.65 2 37.8736 -24.6388 20.2011 -0.5 -1.5 2.65 -24.9584 -38.3438 35.6519 -2.27374e-13 -3.8 3.7 3.5883 6.84127 2.42103 0 -3 2.7 0.0314599 25.6466 0.0820841 2.27374e-13 -1.9 1.6 3.34648e-06 6.37379e-06 -2.40681e-06 5.68434e-14 -8.3 1.9 -46.0827 21.3486 10.3214 2.27374e-13 -4.5 0 -60.5316 0.139853 -0.186406 2.27374e-13 -3.4 0 -43.0899 0.193867 -0.0330054 -0.25 -2.2 0.4 3.34648e-06 6.37379e-06 -2.40681e-06 2.27374e-13 -8.3 1 -57.343 21.6686 14.9326 0 -4.65 1.13687e-13 -87.4517 0.043942 -0.0320116 0 -3.3 2.27374e-13 -90.0002 4.49955e-05 -0.000123745 -0.5 -2.15 -0.8 3.34648e-06 6.37379e-06 -2.40681e-06 -1.13687e-13 -7.75 -0.2 -63.3643 21.1963 18.05 0 -3.8 0 -57.317 -0.00174864 -0.0441524 -2.27374e-13 -3.4 -2.27374e-13 -85.3868 0.0141834 -0.000702046 -0.75 -1.75 -1.85 3.34648e-06 6.37379e-06 -2.40681e-06 -2.27374e-13 -7.15 -1 -74.9778 14.2355 19.6376 -2.27374e-13 -3 0 -28.0444 0.024844 -0.000991868 -2.27374e-13 -2.35 1.13687e-13 -20.858 0.0143215 0.00481924 -5 17 2.27374e-13 5.93751 2.82312 2.01367 -6.45 0 0 -1.67296 -1.31395 -2.53497 -6.45 -5.68434e-14 0 -54.9439 -28.436 2.50314 -5.68434e-14 -32.4 -2 -150.603 -69.0564 -148.053 -2.84217e-14 -25.65 2 -6.13575 -12.3309 -8.36896 0.5 -1.5 2.65 -129.564 18.3988 96.1999 -2.27374e-13 -3.8 3.7 -2.62888 8.19923 -1.99127 -2.27374e-13 -3 2.7 0.796144 52.3305 -0.89717 2.84217e-14 -1.9 1.6 -3.66751e-06 1.1005e-05 -6.4454e-06 -2.84217e-14 -8.3 1.9 22.6109 11.0249 -2.43502 0 -4.5 0 32.7469 7.90001 0.118104 5.68434e-13 -3.4 -1.13687e-13 24.7383 -0.00378498 0.00328029 0.25 -2.2 0.4 -3.66751e-06 1.1005e-05 -6.4454e-06 0 -8.3 1 7.54719 4.61012 -0.357104 5.68434e-14 -4.65 0 42.4595 24.8074 2.38688 0 -3.3 0 36.7761 -0.0117318 0.00535349 0.5 -2.15 -0.8 -3.66751e-06 1.1005e-05 -6.4454e-06 8.52651e-14 -7.75 -0.2 10.3971 -6.25938 0.383724 2.13163e-13 -3.8 -2.27374e-13 20.4621 21.5616 3.82035 1.7053e-13 -3.4 1.13687e-13 28.3016 -0.00283877 -0.0111627 0.75 -1.75 -1.85 -3.66751e-06 1.1005e-05 -6.4454e-06 1.13687e-13 -7.15 -1 3.69809 10.9061 -0.601855 0 -3 -1.13687e-13 10.9954 6.9099 0.260219 0 -2.35 1.13687e-13 12.629 -0.00352533 0.00344703 8 -5.68434e-14 2.27374e-13 36.0855 -33.2113 35.2867 1.13687e-13 -45 -1 -46.479 33.5379 21.1012 0 -41 -2 25.91 9.76874 -15.1644 -2.84217e-13 -7.5 12.5 -0.000251577 1.09897e-05 0.238034 5.68434e-14 0 4 9.77847 -8.38617 83.081 -8 -2.84217e-14 0 -17.6775 -44.816 -24.7459 0 -45 -1 -58.5525 21.7921 53.4255 5.68434e-14 -41 -2 77.6911 0.212899 -12.2204 0 -7.5 12.5 -2.62646e-05 -2.62575e-05 5.55341e-06 0 8.52651e-14 4 -43.658 -22.8914 117.942 
